Simulation
nRows=23
nColumns=15
endheader
time  TH_x TH_y TH_z SC_y  SC_z  SC_x  AC_y  AC_z  AC_x  GH_y  GH_z  GH_yy  EL_x  PS_y
1.549999999999999  0.000000  0.000000  0.000000  -34.357572912727996  7.4328322635878346  19.728396425536808  58.998626589370616  9.35296194285506  -2.716358253931274  16.047330202120733  57.05276389447755  -17.823104646175512  17.941657479805226  0.000000
1.5809999999999989  0.000000  0.000000  0.000000  -34.68922528845249  7.682063524117211  19.933055859124945  59.12396729836648  9.636595072502049  -2.22770812503059  15.598497649735101  57.71082315848259  -17.678578344421737  17.924499301766055  0.000000
1.611999999999999  0.000000  0.000000  0.000000  -34.99222153175371  7.900936495950555  20.10777353769343  59.23376808702296  9.890336839916097  -1.7903037739862786  15.208106221255408  58.28238476748832  -17.55342132615975  17.915944436044494  0.000000
1.642999999999999  0.000000  0.000000  0.000000  -35.26399855864435  8.085752714214433  20.252219382517914  59.32885166005922  10.111997018633916  -1.4120684539040107  14.8816637532152  58.7561244233482  -17.447736202847473  17.91751332371826  0.000000
1.6739999999999988  0.000000  0.000000  0.000000  -35.50350419990917  8.235132200456233  20.366204733330882  59.40878418272322  10.299423010632163  -1.0990230341638647  14.626407186019357  59.12041404648173  -17.363510793722355  17.929093042013612  0.000000
1.7049999999999987  0.000000  0.000000  0.000000  -35.70984613372729  8.349723881884849  20.448974714382814  59.47185056624084  10.450429175965718  -0.8552411442032654  14.450284936623294  59.36452230965736  -17.30396884400194  17.948800736181237  0.000000
1.7359999999999989  0.000000  0.000000  0.000000  -35.880675940447155  8.431022980456873  20.49861390110383  59.51560997958023  10.562886349243264  -0.6833227557025483  14.360196573801844  59.48001729012495  -17.2734920087948  17.973493386276786  0.000000
1.7669999999999988  0.000000  0.000000  0.000000  -36.01136245763673  8.480107536679174  20.512083433522093  59.537669652653236  10.634965952551362  -0.5849738769857313  14.36056403297536  59.46147499895151  -17.277956060585385  17.999512544277618  0.000000
1.7979999999999987  0.000000  0.000000  0.000000  -36.09527082244279  8.496685913442473  20.48593009376266  59.53648068914295  10.66546285303406  -0.5614635700378063  14.45270153310143  59.30646196264139  -17.325072345339397  18.023432879846908  0.000000
1.8289999999999988  0.000000  0.000000  0.000000  -36.12519377582044  8.478749755753418  20.417516423701205  59.511894854926965  10.654069999310053  -0.613828465228742  14.635095383702774  59.014778770717434  -17.42437181847963  18.042659852435758  0.000000
1.8599999999999988  0.000000  0.000000  0.000000  -36.09509590726133  8.422798510739298  20.30606910927699  59.465306816751166  10.601402980636895  -0.7429054884077351  14.90417339725261  58.58786282498463  -17.5862966272455  18.055974933605658  0.000000
1.8909999999999987  0.000000  0.000000  0.000000  -36.001658687343166  8.324773757569204  20.153080611972555  59.39925738595573  10.50855612784901  -0.9491297382508486  15.255234506097043  58.028735731350615  -17.820390790423374  18.06395877080142  0.000000
1.9219999999999986  0.000000  0.000000  0.000000  -35.84502912223062  8.181310940101527  19.961823370946163  59.316554711438705  10.376391559841222  -1.2322549977853927  15.68319684929749  57.342751583114485  -18.13259713291359  18.069266741159186  0.000000
1.9529999999999987  0.000000  0.000000  0.000000  -35.62891463589639  7.991043398643396  19.736380770136666  59.21907072644814  10.204942087656976  -1.590986538918591  16.183189212502796  56.53831945512096  -18.52275085296399  18.07674369255345  0.000000
1.9839999999999987  0.000000  0.000000  0.000000  -35.35996114174362  7.755189938446689  19.480680582030356  59.10710393576039  9.99327257509106  -2.0226427932880338  16.7508114585431  55.62727504624013  -18.983846780710202  18.092806188441223  0.000000
2.014999999999999  0.000000  0.000000  0.000000  -35.04680159725071  7.476844627268239  19.19800408274807  58.97958740806501  9.74010675259966  -2.522933896327312  17.38184373079826  54.62446214189125  -19.50329226840547  18.12401524968961  0.000000
2.0459999999999985  0.000000  0.000000  0.000000  -34.699392006498186  7.160286993225179  18.891126857682952  58.834995247172955  9.444452451896941  -3.086116481302251  18.071924657546496  53.54669255756361  -20.06578137181785  18.175293335401612  0.000000
2.0769999999999986  0.000000  0.000000  0.000000  -34.32851461012868  6.810006484242796  18.562977810519072  58.67242539694429  9.105807928460688  -3.705509050431913  18.81623647318281  52.41165612036856  -20.656251275773823  18.248588958629394  0.000000
2.1079999999999988  0.000000  0.000000  0.000000  -33.94505261899035  6.429743700575913  18.216619697758823  58.492210378158475  8.724178968349227  -4.373625575924101  19.6091774300819  51.237448629491155  -21.261723557480146  18.342444546119836  0.000000
2.1389999999999985  0.000000  0.000000  0.000000  -33.5596428649232  6.02274532344571  17.854393181575674  58.29608281321464  8.299795844990417  -5.081730019019419  20.443788838979277  50.04237142437658  -21.871222271217135  18.45255894167939  0.000000
2.1699999999999986  0.000000  0.000000  0.000000  -33.182576695742355  5.592114806924223  17.476834488192665  58.08699734007862  7.833001311057959  -5.819242807287812  21.311068154005486  48.84477412273306  -22.474419645350476  18.573003941858527  0.000000
2.2009999999999983  0.000000  0.000000  0.000000  -32.82383758027507  5.141186728197414  17.08169041465328  57.868768657242704  7.324497681303821  -6.5731391011663725  22.19933189262067  47.66249062704955  -23.05997113228774  18.697391655246197  0.000000
2.2319999999999984  0.000000  0.000000  0.000000  -32.492869438380644  4.673772130869798  16.663456692324576  57.64549997162169  6.776102611433444  -7.327666466368404  23.09406883433689  46.51157871955803  -23.614343561968784  18.819635393748516  0.000000
